HIERARCHY
ROOT Hips
{
   OFFSET 0.00000 0.00000 0.00000
   CHANNELS 6 Xposition Yposition Zposition Zrotation Xrotation Yrotation
   JOINT Spine
   {
      OFFSET 0.000000 10.701450 0.000000
      CHANNELS 3 Zrotation Xrotation Yrotation
      JOINT Spine1
      {
         OFFSET -0.000000 23.091659 0.114894
         CHANNELS 3 Zrotation Xrotation Yrotation
         JOINT HEad
         {
            OFFSET 0.000000 7.860744 0.010206
            CHANNELS 3 Zrotation Xrotation Yrotation
            End Site
            {
               OFFSET -0.261000 11.496780 2.262555
            }
         }
         JOINT LeftShoulder1
         {
            OFFSET 8.091000 -0.326025 -0.198000
            CHANNELS 3 Zrotation Xrotation Yrotation
            JOINT LeftArm
            {
               OFFSET 9.254430 -0.003042 0.289908
               CHANNELS 3 Zrotation Xrotation Yrotation
               JOINT LeftForeArm
               {
                  OFFSET 29.490208 0.089226 -1.281906
                  CHANNELS 3 Zrotation Xrotation Yrotation
                  JOINT LeftHand
                  {
                     OFFSET 24.807870 0.076824 0.919944
                     CHANNELS 3 Zrotation Xrotation Yrotation
                     End Site
                     {
                        OFFSET 15.069871 -0.540000 1.352619
                     }
                  }
               }
            }
         }
         JOINT RightShoulder
         {
            OFFSET -8.091000 -0.326025 -0.198000
            CHANNELS 3 Zrotation Xrotation Yrotation
            JOINT RightArm
            {
               OFFSET -9.254430 -0.003042 0.289908
               CHANNELS 3 Zrotation Xrotation Yrotation
               JOINT RightForeArm
               {
                  OFFSET -29.607386 0.089226 -1.281906
                  CHANNELS 3 Zrotation Xrotation Yrotation
                  JOINT RightHand
                  {
                     OFFSET -24.742889 0.076824 0.919944
                     CHANNELS 3 Zrotation Xrotation Yrotation
                     End Site
                     {
                        OFFSET -14.968080 -0.540000 1.352619
                     }
                  }
               }
            }
         }
      }
   }
   JOINT LeftUpLeg
   {
      OFFSET 8.051219 -7.800363 0.091485
      CHANNELS 3 Zrotation Xrotation Yrotation
      JOINT LeftLeg
      {
         OFFSET 0.000000 -39.980428 1.235430
         CHANNELS 3 Zrotation Xrotation Yrotation
         JOINT LeftFoot
         {
            OFFSET -0.228195 -37.883157 -1.314531
            CHANNELS 3 Zrotation Xrotation Yrotation
            JOINT LeftToes
            {
               OFFSET -0.036000 -3.973581 7.649189
               CHANNELS 3 Zrotation Xrotation Yrotation
               End Site
               {
                  OFFSET 0.072000 -0.042705 8.801811
               }
            }
         }
      }
   }
   JOINT RightUpLeg
   {
      OFFSET -8.051219 -7.800363 0.091485
      CHANNELS 3 Zrotation Xrotation Yrotation
      JOINT RightLeg
      {
         OFFSET 0.000000 -39.980428 1.235430
         CHANNELS 3 Zrotation Xrotation Yrotation
         JOINT RightFoot
         {
            OFFSET 0.228195 -37.883157 -1.314531
            CHANNELS 3 Zrotation Xrotation Yrotation
            JOINT RightToes
            {
               OFFSET 0.036000 -3.973581 7.649189
               CHANNELS 3 Zrotation Xrotation Yrotation
               End Site
               {
                  OFFSET -0.072000 -0.123705 8.801811
               }
            }
         }
      }
   }
}
MOTION
Frames: 10
Frame Time: 0.016670
-66.154355 82.226952 -9.194167 5.096636 22.571361 165.490470 2.069637 21.053568 196.869466 -11.569189 -11.921107 -219.644226 -20.829703 24.214265 -9.977122 62.115216 51.869710 -72.864035 56.094926 -83.051439 18.599514 -38.989643 -64.744750 -76.307112 -39.332539 -53.163228 -69.793195 -86.188900 40.512714 102.578820 82.676974 56.748135 225.613497 0.743529 123.747673 54.521391 -20.913650 -14.109298 27.753179 16.735178 -19.346779 -148.461265 -13.161384 -18.062305 114.167295 -35.811768 -4.381659 64.185774 11.526581 -2.512041 -29.361808 -18.953495 25.360330 -7.684304 14.122999 26.396595 21.661749 -44.318427 -0.797694 27.247189 32.210667 -58.980862 -44.325021
-66.954121 81.475953 -11.365080 6.074262 23.595360 165.652523 4.289642 22.210616 197.368712 -11.324033 -10.760953 -219.380267 -21.045563 22.923469 -9.750893 62.247776 51.609131 -73.043949 56.629136 -79.071611 18.147469 -36.507433 -66.040717 -72.494077 -43.310752 -52.512291 -69.322383 -87.140756 41.126570 102.838142 80.447075 56.523237 227.382612 3.733762 126.709448 52.497865 -20.762486 -12.970947 30.755143 16.635491 -18.795320 -150.231814 -13.295530 -16.794069 116.086127 -38.983851 -4.803425 64.054409 11.980608 -1.905921 -28.513072 -19.681737 27.632705 -6.833598 14.122505 27.265278 22.061771 -43.816278 -0.884052 27.272590 32.013595 -60.247480 -44.835018
-67.904996 80.755805 -13.691083 7.271920 25.011743 165.456278 5.573131 20.800733 198.371793 -12.329675 -9.254970 -219.527389 -20.305679 18.998929 -9.668993 59.512907 49.199782 -75.002505 57.216170 -78.194492 17.697442 -32.998522 -70.753233 -67.597720 -48.536844 -51.394766 -69.120230 -87.878928 41.659267 103.217655 78.610546 56.136768 227.553913 5.081788 129.839506 49.038153 -20.150866 -11.486101 33.442484 16.198284 -17.577314 -151.762009 -14.452749 -16.317377 117.796680 -39.364764 -4.812276 63.344759 9.786876 -2.108713 -28.754885 -20.762160 31.003117 -6.138459 14.017888 27.041697 22.602592 -43.459104 -0.822064 27.290972 32.312498 -61.540640 -44.689678
-68.974089 80.082825 -16.269203 8.589440 25.564068 164.950516 5.606024 21.805027 198.933084 -13.814069 -6.557307 -219.388463 -19.877515 16.920865 -9.482435 57.056989 45.674015 -75.678011 57.877882 -78.006969 18.490169 -28.443240 -76.360449 -63.449876 -55.783736 -50.810402 -69.599150 -87.994925 42.383216 102.946462 75.073840 55.871002 228.815531 6.400185 132.730260 46.140414 -20.244559 -10.581178 34.588734 16.283933 -16.962874 -153.021933 -15.779667 -16.241850 119.498558 -40.775256 -4.938103 62.234054 8.880456 -2.987539 -29.819967 -21.567642 33.238354 -5.292997 13.624254 27.024789 23.109052 -43.333514 -0.297101 27.357249 33.185929 -63.036396 -43.800367
-70.166735 79.595641 -18.865246 9.455686 26.646332 163.859845 6.622217 24.189130 198.742891 -14.812594 -7.199900 -217.224563 -19.442096 16.919490 -9.285054 56.691441 45.447365 -71.842348 61.205988 -79.203550 21.725645 -28.481394 -73.476812 -61.471737 -58.843541 -50.266712 -67.734644 -81.535110 42.816800 100.643999 73.882026 55.854084 231.705671 1.734829 129.965932 50.979688 -15.535216 -12.290322 34.791727 15.996960 -15.557622 -153.517285 -16.833360 -16.766142 121.282481 -41.238097 -5.191548 60.858584 7.525304 -4.071002 -31.036946 -23.285640 34.907174 -4.021208 12.603424 27.754533 23.456046 -43.401570 0.602085 27.264558 34.646620 -65.064566 -42.185909
-71.478514 79.230417 -21.479718 9.571622 25.212576 161.793917 6.178896 24.435118 197.363220 -15.808517 -9.651536 -213.255745 -18.374350 15.188676 -9.221041 55.342014 48.572149 -67.778248 65.893574 -81.800654 27.464722 -29.466416 -68.189494 -63.533422 -58.144062 -50.980156 -68.212744 -78.239571 46.317244 102.110467 73.157480 56.516882 225.629603 -3.248893 129.677289 55.897353 -12.575140 -13.834291 36.380811 15.840599 -16.055575 -153.185461 -17.873222 -17.727735 123.447459 -41.594483 -5.235588 59.803934 6.715522 -5.589320 -32.281865 -24.278336 33.512764 -2.504518 11.215463 28.355616 24.280184 -60.726447 1.110110 26.573993 51.109370 -67.654028 -41.522776
-72.866291 79.112343 -23.780534 9.418523 23.617754 157.793626 4.514461 22.583039 194.016564 -16.616431 -15.246586 -209.420212 -16.775851 12.566871 -9.243076 53.344723 52.529503 -59.670377 71.106832 -86.101091 35.327197 -33.109270 -61.847397 -65.766532 -54.223697 -51.779589 -67.668173 -73.311631 52.150615 102.882873 73.697618 54.802518 219.101185 -7.551689 131.837186 61.861911 -11.469863 -15.638188 40.902400 16.149868 -15.837356 -150.828458 -18.916299 -19.024140 124.428479 -41.809176 -5.225733 58.854313 6.282000 -7.299115 -33.708005 -27.259384 29.846892 -1.971968 7.343461 29.975504 25.402491 -52.947237 2.683540 26.571703 45.548192 -68.121827 -39.796442
-74.124187 80.284404 -25.698921 7.687110 20.673837 155.898303 4.640736 24.753692 196.116970 -13.886785 -16.447690 -203.250024 -13.863778 9.787948 -9.628287 51.291555 56.303698 -54.809335 84.409540 -87.227984 45.355902 -34.116819 -54.302470 -70.162695 -53.215452 -49.514927 -70.601903 -63.545505 60.902481 101.725183 79.818267 52.955672 210.625426 -9.633997 130.957280 70.405112 -13.534786 -12.835548 43.550109 16.002279 -17.645862 -148.521685 -18.971846 -20.759875 123.063316 -40.693150 -4.727924 57.321762 4.049441 -9.106239 -33.586468 -29.466515 24.766990 -2.905674 4.830133 30.651816 26.598008 -45.937537 4.256442 26.418758 48.810431 -64.598693 -29.327330
-75.476259 80.848922 -27.178456 9.646210 19.152270 151.452833 4.133413 25.866985 196.164276 -11.237814 -14.629717 -199.175529 -10.463334 7.025115 -10.132102 49.103634 60.699850 -49.050406 101.054520 -86.752473 61.004313 -34.981664 -44.643404 -73.071611 -55.669699 -44.747653 -73.095428 -49.101086 73.178346 95.223472 89.739294 46.656927 205.812519 -11.225422 128.989816 79.276114 -14.683551 -5.405217 41.447572 17.854647 -16.622124 -145.502167 -19.796311 -21.796722 120.723812 -38.627220 -3.932635 56.562323 1.172408 -11.284464 -32.284641 -29.468653 21.613541 -4.588407 2.620719 30.024094 28.301391 -39.595880 6.032996 26.377064 48.892553 -57.864461 -21.702158
-76.933864 81.358994 -28.162417 11.581435 20.807048 147.526991 5.161256 26.237432 196.526085 -7.925194 -13.963523 -196.550387 -5.711317 3.435580 -10.960629 48.100439 63.885840 -46.232891 122.712053 -84.961925 85.723874 -33.764142 -35.963791 -71.930477 -56.335274 -40.757402 -78.364167 -37.171129 80.263322 87.989659 93.987713 41.497508 200.716638 -14.905303 129.087242 86.887437 -15.583263 3.033540 41.232107 17.949163 -13.242438 -141.586898 -21.406397 -23.562715 116.369444 -35.957210 -2.321063 55.168650 -1.698182 -13.818423 -31.116928 -30.499066 20.966589 -5.994738 -0.267555 29.053528 30.824972 -33.779080 8.200544 26.317489 46.573520 -49.342274 -16.576628
